<mxfile host="app.diagrams.net" modified="2023-11-05T06:58:09.404Z" agent="Mozilla/5.0 (X11; Ubuntu; Linux x86_64; rv:109.0) Gecko/20100101 Firefox/119.0" etag="Iz9dbtIaYir7TdQnD8MW" version="22.0.8" type="github">
  <diagram id="pTSd4cfAjrHc5XA5leJu" name="Page-1">
    <mxGraphModel dx="743" dy="1801" grid="1" gridSize="10" guides="1" tooltips="1" connect="1" arrows="1" fold="1" page="0" pageScale="1" pageWidth="850" pageHeight="1100" background="none" math="0" shadow="0">
      <root>
        <mxCell id="0" />
        <mxCell id="1" parent="0" />
        <mxCell id="s7rxcZxsQfcRuFrsy-j0-20" value="has a" style="edgeStyle=orthogonalEdgeStyle;rounded=0;orthogonalLoop=1;jettySize=auto;html=1;exitX=1;exitY=0.5;exitDx=0;exitDy=0;entryX=0;entryY=0.5;entryDx=0;entryDy=0;startArrow=diamond;startFill=1;startSize=13;endArrow=open;endFill=0;endSize=13;fontSize=15;" parent="1" source="node15" target="node1" edge="1">
          <mxGeometry relative="1" as="geometry" />
        </mxCell>
        <mxCell id="s7rxcZxsQfcRuFrsy-j0-21" value="use" style="edgeStyle=orthogonalEdgeStyle;rounded=0;orthogonalLoop=1;jettySize=auto;html=1;exitX=0;exitY=0.25;exitDx=0;exitDy=0;entryX=1;entryY=0.5;entryDx=0;entryDy=0;dashed=1;endArrow=open;endFill=0;endSize=13;startSize=13;fontSize=15;" parent="1" source="node15" target="s7rxcZxsQfcRuFrsy-j0-25" edge="1">
          <mxGeometry relative="1" as="geometry" />
        </mxCell>
        <mxCell id="koLGY-mUpxRukAlsvuZr-14" value="use" style="edgeStyle=orthogonalEdgeStyle;rounded=0;orthogonalLoop=1;jettySize=auto;html=1;exitX=0.25;exitY=0;exitDx=0;exitDy=0;dashed=1;endArrow=open;endFill=0;endSize=13;startSize=13;" edge="1" parent="1" source="node15" target="koLGY-mUpxRukAlsvuZr-12">
          <mxGeometry relative="1" as="geometry" />
        </mxCell>
        <mxCell id="koLGY-mUpxRukAlsvuZr-15" value="use" style="edgeStyle=orthogonalEdgeStyle;rounded=0;orthogonalLoop=1;jettySize=auto;html=1;exitX=0.75;exitY=0;exitDx=0;exitDy=0;entryX=0.5;entryY=1;entryDx=0;entryDy=0;dashed=1;endArrow=open;endFill=0;endSize=13;startSize=13;" edge="1" parent="1" source="node15" target="koLGY-mUpxRukAlsvuZr-13">
          <mxGeometry relative="1" as="geometry" />
        </mxCell>
        <mxCell id="node15" value="&lt;p style=&quot;margin:0px;margin-top:4px;text-align:center;&quot;&gt;&lt;b&gt;FileModel&lt;/b&gt;&lt;/p&gt;&lt;hr size=&quot;1&quot;&gt;&lt;p style=&quot;margin:0 0 0 4px;line-height:1.6;&quot;&gt;+ FileModel(String, String): &lt;/p&gt;&lt;hr size=&quot;1&quot;&gt;&lt;p style=&quot;margin:0 0 0 4px;line-height:1.6;&quot;&gt;- fileName: String&lt;br&gt;- mimeType: String&lt;br&gt;- urlPairs: List&amp;lt;URLPair&amp;gt;&lt;br&gt;- stringPath: String&lt;/p&gt;&lt;hr size=&quot;1&quot;&gt;&lt;p style=&quot;margin:0 0 0 4px;line-height:1.6;&quot;&gt;+ loadAndProcessFile(): String&lt;/p&gt;&lt;p style=&quot;margin:0 0 0 4px;line-height:1.6;&quot;&gt;+ setArchivedURL(String, String): void&lt;br&gt;+ addExtractedURL(String, int): void&lt;/p&gt;&lt;p style=&quot;margin:0 0 0 4px;line-height:1.6;&quot;&gt;+ setUrlPairs(List&amp;lt;URLPair&amp;gt;): void&lt;/p&gt;&lt;p style=&quot;margin:0 0 0 4px;line-height:1.6;&quot;&gt;+ getUrlPairs(): List&amp;lt;URLPair&amp;gt;&lt;/p&gt;&lt;p style=&quot;margin:0 0 0 4px;line-height:1.6;&quot;&gt;+ getFileName(): String&lt;/p&gt;&lt;p style=&quot;margin:0 0 0 4px;line-height:1.6;&quot;&gt;+ fileToString(): String&lt;/p&gt;" style="verticalAlign=top;align=left;overflow=fill;fontSize=14;fontFamily=Helvetica;html=1;rounded=0;shadow=0;comic=0;labelBackgroundColor=none;strokeWidth=1;" parent="1" vertex="1">
          <mxGeometry x="2265" y="-561" width="269" height="351" as="geometry" />
        </mxCell>
        <mxCell id="node1" value="&lt;p style=&quot;margin:0px;margin-top:4px;text-align:center;&quot;&gt;&lt;b&gt;URLPair&lt;/b&gt;&lt;/p&gt;&lt;hr size=&quot;1&quot;&gt;&lt;p style=&quot;margin:0 0 0 4px;line-height:1.6;&quot;&gt;+ URLPair(String, int): &lt;/p&gt;&lt;hr size=&quot;1&quot;&gt;&lt;p style=&quot;margin:0 0 0 4px;line-height:1.6;&quot;&gt;- extractedURL: String&lt;br&gt;- archivedURL: String&lt;br&gt;- lineNumber: int&lt;/p&gt;&lt;hr size=&quot;1&quot;&gt;+ getExtractedURL(): String&lt;br&gt;+ getLineNumber(): int&lt;br&gt;+ getArchivedURL(): String&lt;br&gt;+ toString(): String&lt;br&gt;+ setArchivedURL(String): void" style="verticalAlign=top;align=left;overflow=fill;fontSize=14;fontFamily=Helvetica;html=1;rounded=0;shadow=0;comic=0;labelBackgroundColor=none;strokeWidth=1;" parent="1" vertex="1">
          <mxGeometry x="2710" y="-513" width="220" height="255" as="geometry" />
        </mxCell>
        <mxCell id="s7rxcZxsQfcRuFrsy-j0-12" value="&lt;p style=&quot;margin:0px;margin-top:4px;text-align:center;&quot;&gt;&lt;i&gt;&amp;lt;&amp;lt;Interface&amp;gt;&amp;gt;&lt;/i&gt;&lt;/p&gt;&lt;p style=&quot;margin:0px;margin-top:4px;text-align:center;&quot;&gt;&lt;b&gt;FileReaderInterface&lt;/b&gt;&lt;br&gt;&lt;/p&gt;&lt;hr size=&quot;1&quot;&gt;&lt;p style=&quot;margin:0px;margin-left:4px;&quot;&gt;+ readFile(): String&lt;br&gt;&lt;/p&gt;&lt;hr size=&quot;1&quot;&gt;&lt;p style=&quot;margin:0px;margin-left:4px;&quot;&gt;&lt;br&gt;&lt;/p&gt;" style="verticalAlign=top;align=left;overflow=fill;fontSize=12;fontFamily=Helvetica;html=1;whiteSpace=wrap;" parent="1" vertex="1">
          <mxGeometry x="1891" y="-390" width="190" height="90" as="geometry" />
        </mxCell>
        <mxCell id="s7rxcZxsQfcRuFrsy-j0-22" value="implements" style="edgeStyle=orthogonalEdgeStyle;rounded=0;orthogonalLoop=1;jettySize=auto;html=1;exitX=0.5;exitY=0;exitDx=0;exitDy=0;endArrow=block;endFill=0;endSize=13;startSize=13;fontSize=15;" parent="1" source="s7rxcZxsQfcRuFrsy-j0-13" target="s7rxcZxsQfcRuFrsy-j0-12" edge="1">
          <mxGeometry relative="1" as="geometry" />
        </mxCell>
        <mxCell id="s7rxcZxsQfcRuFrsy-j0-13" value="TextFileReader" style="swimlane;fontStyle=1;align=center;verticalAlign=top;childLayout=stackLayout;horizontal=1;startSize=26;horizontalStack=0;resizeParent=1;resizeParentMax=0;resizeLast=0;collapsible=1;marginBottom=0;whiteSpace=wrap;html=1;" parent="1" vertex="1">
          <mxGeometry x="1810" y="-206" width="160" height="60" as="geometry" />
        </mxCell>
        <mxCell id="s7rxcZxsQfcRuFrsy-j0-14" value="+ readFile(): String" style="text;strokeColor=none;fillColor=none;align=left;verticalAlign=top;spacingLeft=4;spacingRight=4;overflow=hidden;rotatable=0;points=[[0,0.5],[1,0.5]];portConstraint=eastwest;whiteSpace=wrap;html=1;" parent="s7rxcZxsQfcRuFrsy-j0-13" vertex="1">
          <mxGeometry y="26" width="160" height="26" as="geometry" />
        </mxCell>
        <mxCell id="s7rxcZxsQfcRuFrsy-j0-15" value="" style="line;strokeWidth=1;fillColor=none;align=left;verticalAlign=middle;spacingTop=-1;spacingLeft=3;spacingRight=3;rotatable=0;labelPosition=right;points=[];portConstraint=eastwest;strokeColor=inherit;" parent="s7rxcZxsQfcRuFrsy-j0-13" vertex="1">
          <mxGeometry y="52" width="160" height="8" as="geometry" />
        </mxCell>
        <mxCell id="s7rxcZxsQfcRuFrsy-j0-23" value="implements" style="edgeStyle=orthogonalEdgeStyle;rounded=0;orthogonalLoop=1;jettySize=auto;html=1;exitX=0.5;exitY=0;exitDx=0;exitDy=0;endArrow=block;endFill=0;endSize=13;startSize=13;fontSize=15;" parent="1" source="s7rxcZxsQfcRuFrsy-j0-17" target="s7rxcZxsQfcRuFrsy-j0-12" edge="1">
          <mxGeometry relative="1" as="geometry" />
        </mxCell>
        <mxCell id="s7rxcZxsQfcRuFrsy-j0-17" value="PDFFileReader" style="swimlane;fontStyle=1;align=center;verticalAlign=top;childLayout=stackLayout;horizontal=1;startSize=26;horizontalStack=0;resizeParent=1;resizeParentMax=0;resizeLast=0;collapsible=1;marginBottom=0;whiteSpace=wrap;html=1;" parent="1" vertex="1">
          <mxGeometry x="2031" y="-206" width="160" height="60" as="geometry" />
        </mxCell>
        <mxCell id="s7rxcZxsQfcRuFrsy-j0-18" value="+ readFile(): String" style="text;strokeColor=none;fillColor=none;align=left;verticalAlign=top;spacingLeft=4;spacingRight=4;overflow=hidden;rotatable=0;points=[[0,0.5],[1,0.5]];portConstraint=eastwest;whiteSpace=wrap;html=1;" parent="s7rxcZxsQfcRuFrsy-j0-17" vertex="1">
          <mxGeometry y="26" width="160" height="26" as="geometry" />
        </mxCell>
        <mxCell id="s7rxcZxsQfcRuFrsy-j0-19" value="" style="line;strokeWidth=1;fillColor=none;align=left;verticalAlign=middle;spacingTop=-1;spacingLeft=3;spacingRight=3;rotatable=0;labelPosition=right;points=[];portConstraint=eastwest;strokeColor=inherit;" parent="s7rxcZxsQfcRuFrsy-j0-17" vertex="1">
          <mxGeometry y="52" width="160" height="8" as="geometry" />
        </mxCell>
        <mxCell id="koLGY-mUpxRukAlsvuZr-10" value="create" style="edgeStyle=orthogonalEdgeStyle;rounded=0;orthogonalLoop=1;jettySize=auto;html=1;exitX=0.5;exitY=1;exitDx=0;exitDy=0;entryX=0.5;entryY=0;entryDx=0;entryDy=0;endArrow=open;endFill=0;dashed=1;endSize=13;startSize=13;fontSize=15;" edge="1" parent="1" source="s7rxcZxsQfcRuFrsy-j0-24" target="s7rxcZxsQfcRuFrsy-j0-12">
          <mxGeometry relative="1" as="geometry" />
        </mxCell>
        <mxCell id="s7rxcZxsQfcRuFrsy-j0-24" value="FileReaderFactory" style="swimlane;fontStyle=1;align=center;verticalAlign=top;childLayout=stackLayout;horizontal=1;startSize=26;horizontalStack=0;resizeParent=1;resizeParentMax=0;resizeLast=0;collapsible=1;marginBottom=0;whiteSpace=wrap;html=1;" parent="1" vertex="1">
          <mxGeometry x="1866" y="-513" width="240" height="60" as="geometry" />
        </mxCell>
        <mxCell id="s7rxcZxsQfcRuFrsy-j0-25" value="+ getFileReader(): FileReaderInterface" style="text;strokeColor=none;fillColor=none;align=left;verticalAlign=top;spacingLeft=4;spacingRight=4;overflow=hidden;rotatable=0;points=[[0,0.5],[1,0.5]];portConstraint=eastwest;whiteSpace=wrap;html=1;" parent="s7rxcZxsQfcRuFrsy-j0-24" vertex="1">
          <mxGeometry y="26" width="240" height="26" as="geometry" />
        </mxCell>
        <mxCell id="s7rxcZxsQfcRuFrsy-j0-26" value="" style="line;strokeWidth=1;fillColor=none;align=left;verticalAlign=middle;spacingTop=-1;spacingLeft=3;spacingRight=3;rotatable=0;labelPosition=right;points=[];portConstraint=eastwest;strokeColor=inherit;" parent="s7rxcZxsQfcRuFrsy-j0-24" vertex="1">
          <mxGeometry y="52" width="240" height="8" as="geometry" />
        </mxCell>
        <mxCell id="s7rxcZxsQfcRuFrsy-j0-28" value="&lt;p style=&quot;margin:0px;margin-top:4px;text-align:center;&quot;&gt;&lt;b&gt;FolderModel&lt;/b&gt;&lt;/p&gt;&lt;hr size=&quot;1&quot;&gt;&lt;p style=&quot;margin:0 0 0 4px;line-height:1.6;&quot;&gt;+ FolderModel(String): &lt;/p&gt;&lt;hr size=&quot;1&quot;&gt;&lt;p style=&quot;margin:0 0 0 4px;line-height:1.6;&quot;&gt;- basePath: String&lt;br&gt;- index: int&lt;br&gt;- files: ArrayList&amp;lt;FileModel&amp;gt;&lt;/p&gt;&lt;hr size=&quot;1&quot;&gt;+ getBasePath(): String&lt;br&gt;+ next(): FileModel&lt;br&gt;+ wasLastFile(): boolean&lt;br&gt;+ addFile(FileModel): void" style="verticalAlign=top;align=left;overflow=fill;fontSize=14;fontFamily=Helvetica;html=1;rounded=0;shadow=0;comic=0;labelBackgroundColor=none;strokeWidth=1;" parent="1" vertex="1">
          <mxGeometry x="2650" y="-210" width="194" height="240" as="geometry" />
        </mxCell>
        <mxCell id="s7rxcZxsQfcRuFrsy-j0-29" value="has a" style="edgeStyle=orthogonalEdgeStyle;rounded=0;orthogonalLoop=1;jettySize=auto;html=1;startArrow=diamond;startFill=0;startSize=13;endArrow=open;endFill=0;endSize=13;fontSize=15;entryX=0.75;entryY=1;entryDx=0;entryDy=0;" parent="1" source="s7rxcZxsQfcRuFrsy-j0-28" target="node15" edge="1">
          <mxGeometry relative="1" as="geometry">
            <mxPoint x="2544" y="-250" as="sourcePoint" />
            <mxPoint x="2635" y="50" as="targetPoint" />
          </mxGeometry>
        </mxCell>
        <mxCell id="koLGY-mUpxRukAlsvuZr-4" value="has a" style="edgeStyle=orthogonalEdgeStyle;rounded=0;orthogonalLoop=1;jettySize=auto;html=1;exitX=0.5;exitY=0;exitDx=0;exitDy=0;entryX=0.25;entryY=1;entryDx=0;entryDy=0;endArrow=open;endFill=0;startArrow=diamond;startFill=1;startSize=13;endSize=13;fontSize=15;" edge="1" parent="1" source="koLGY-mUpxRukAlsvuZr-3" target="node15">
          <mxGeometry relative="1" as="geometry" />
        </mxCell>
        <mxCell id="koLGY-mUpxRukAlsvuZr-5" value="has a" style="edgeStyle=orthogonalEdgeStyle;rounded=0;orthogonalLoop=1;jettySize=auto;html=1;exitX=1;exitY=0.5;exitDx=0;exitDy=0;endArrow=open;endFill=0;startArrow=diamond;startFill=1;entryX=0.5;entryY=1;entryDx=0;entryDy=0;startSize=13;endSize=13;fontSize=15;" edge="1" parent="1" source="koLGY-mUpxRukAlsvuZr-3" target="s7rxcZxsQfcRuFrsy-j0-28">
          <mxGeometry relative="1" as="geometry" />
        </mxCell>
        <mxCell id="koLGY-mUpxRukAlsvuZr-7" value="has a" style="edgeStyle=orthogonalEdgeStyle;rounded=0;orthogonalLoop=1;jettySize=auto;html=1;exitX=0;exitY=0.5;exitDx=0;exitDy=0;endArrow=open;endFill=0;endSize=13;startSize=13;fontSize=15;startArrow=diamond;startFill=1;" edge="1" parent="1" source="koLGY-mUpxRukAlsvuZr-3" target="koLGY-mUpxRukAlsvuZr-32">
          <mxGeometry relative="1" as="geometry">
            <mxPoint x="1970" y="220.53846153846143" as="targetPoint" />
          </mxGeometry>
        </mxCell>
        <mxCell id="koLGY-mUpxRukAlsvuZr-17" value="use" style="edgeStyle=orthogonalEdgeStyle;rounded=0;orthogonalLoop=1;jettySize=auto;html=1;exitX=1;exitY=0.75;exitDx=0;exitDy=0;entryX=0;entryY=0.5;entryDx=0;entryDy=0;dashed=1;endArrow=open;endFill=0;endSize=13;startSize=13;" edge="1" parent="1" source="koLGY-mUpxRukAlsvuZr-3" target="koLGY-mUpxRukAlsvuZr-16">
          <mxGeometry relative="1" as="geometry" />
        </mxCell>
        <mxCell id="koLGY-mUpxRukAlsvuZr-21" value="use" style="edgeStyle=orthogonalEdgeStyle;rounded=0;orthogonalLoop=1;jettySize=auto;html=1;exitX=0.75;exitY=1;exitDx=0;exitDy=0;entryX=0;entryY=0.5;entryDx=0;entryDy=0;dashed=1;endArrow=open;endFill=0;endSize=13;startSize=13;" edge="1" parent="1" source="koLGY-mUpxRukAlsvuZr-3" target="koLGY-mUpxRukAlsvuZr-20">
          <mxGeometry relative="1" as="geometry" />
        </mxCell>
        <mxCell id="koLGY-mUpxRukAlsvuZr-3" value="&lt;p style=&quot;margin:0px;margin-top:4px;text-align:center;&quot;&gt;&lt;b&gt;CLIController&lt;/b&gt;&lt;/p&gt;&lt;hr size=&quot;1&quot;&gt;&lt;p style=&quot;margin:0 0 0 4px;line-height:1.6;&quot;&gt;+ CLIController(): &lt;/p&gt;&lt;hr size=&quot;1&quot;&gt;&lt;p style=&quot;margin:0 0 0 4px;line-height:1.6;&quot;&gt;- extractor: URLExtractor&lt;br&gt;- scanner: Scanner&lt;br&gt;- archiver: URLArchiver&lt;br&gt;- fileModel: FileModel&lt;/p&gt;&lt;p style=&quot;margin:0 0 0 4px;line-height:1.6;&quot;&gt;- folderModel: FolderModel&lt;br&gt;&lt;/p&gt;&lt;p style=&quot;margin:0 0 0 4px;line-height:1.6;&quot;&gt;- view: ConsoleView&lt;br&gt;- currentURLPairIndex: int&lt;/p&gt;&lt;p style=&quot;margin:0 0 0 4px;line-height:1.6;&quot;&gt;&lt;/p&gt;&lt;hr size=&quot;1&quot;&gt;&lt;p style=&quot;margin:0 0 0 4px;line-height:1.6;&quot;&gt;- moveToNextURLPair(): void&lt;br&gt;- processUserInput(): void&lt;br&gt;- handleOpenArchived(URLPair): void&lt;br&gt;- handleNext(): void&lt;br&gt;+ start(String[]): void&lt;br&gt;- moveToPreviousURLPair(): void&lt;br&gt;- resetURLPairCounter(): void&lt;br&gt;- getCurrentURLPair(): URLPair?&lt;br&gt;- handleOpen(URLPair): void&lt;br&gt;- handleQuit(): void&lt;br&gt;- handleArchive(String): void&lt;br&gt;- lastURLPair(): void&lt;br&gt;+ handlePath(String): void&lt;br&gt;- shutdown(): void&lt;/p&gt;" style="verticalAlign=top;align=left;overflow=fill;fontSize=14;fontFamily=Helvetica;html=1;rounded=0;shadow=0;comic=0;labelBackgroundColor=none;strokeWidth=1;" vertex="1" parent="1">
          <mxGeometry x="2115" width="437" height="570" as="geometry" />
        </mxCell>
        <mxCell id="koLGY-mUpxRukAlsvuZr-9" value="create" style="edgeStyle=orthogonalEdgeStyle;rounded=0;orthogonalLoop=1;jettySize=auto;html=1;exitX=0.5;exitY=0;exitDx=0;exitDy=0;endArrow=open;endFill=0;endSize=13;startSize=13;fontSize=15;" edge="1" parent="1" source="koLGY-mUpxRukAlsvuZr-8" target="koLGY-mUpxRukAlsvuZr-3">
          <mxGeometry relative="1" as="geometry" />
        </mxCell>
        <mxCell id="koLGY-mUpxRukAlsvuZr-8" value="&lt;p style=&quot;margin:0px;margin-top:4px;text-align:center;&quot;&gt;&lt;b&gt;Main&lt;/b&gt;&lt;/p&gt;&lt;hr size=&quot;1&quot;/&gt;&lt;p style=&quot;margin:0 0 0 4px;line-height:1.6;&quot;&gt;+ Main(): &lt;/p&gt;&lt;hr size=&quot;1&quot;/&gt;&lt;p style=&quot;margin:0 0 0 4px;line-height:1.6;&quot;&gt;+ main(String[]): void&lt;/p&gt;" style="verticalAlign=top;align=left;overflow=fill;fontSize=14;fontFamily=Helvetica;html=1;rounded=0;shadow=0;comic=0;labelBackgroundColor=none;strokeWidth=1;" vertex="1" parent="1">
          <mxGeometry x="2251.5" y="640" width="164" height="132" as="geometry" />
        </mxCell>
        <mxCell id="koLGY-mUpxRukAlsvuZr-12" value="&lt;p style=&quot;margin:0px;margin-top:4px;text-align:center;&quot;&gt;&lt;b&gt;URLExtractor&lt;/b&gt;&lt;/p&gt;&lt;hr size=&quot;1&quot;&gt;&lt;p style=&quot;margin:0 0 0 4px;line-height:1.6;&quot;&gt;+ URLExtractor() &lt;/p&gt;&lt;hr size=&quot;1&quot;&gt;+ extractURL(String): List&amp;lt;URLPair&amp;gt;" style="verticalAlign=top;align=left;overflow=fill;fontSize=14;fontFamily=Helvetica;html=1;rounded=0;shadow=0;comic=0;labelBackgroundColor=none;strokeWidth=1;" vertex="1" parent="1">
          <mxGeometry x="2090" y="-787" width="250" height="104" as="geometry" />
        </mxCell>
        <mxCell id="koLGY-mUpxRukAlsvuZr-13" value="&lt;p style=&quot;margin:0px;margin-top:4px;text-align:center;&quot;&gt;&lt;b&gt;URLArchiver&lt;/b&gt;&lt;/p&gt;&lt;hr size=&quot;1&quot;/&gt;&lt;p style=&quot;margin:0 0 0 4px;line-height:1.6;&quot;&gt;+ URLArchiver(): &lt;/p&gt;&lt;hr size=&quot;1&quot;/&gt;&lt;p style=&quot;margin:0 0 0 4px;line-height:1.6;&quot;&gt;+ archiveURL(String): String&lt;/p&gt;" style="verticalAlign=top;align=left;overflow=fill;fontSize=14;fontFamily=Helvetica;html=1;rounded=0;shadow=0;comic=0;labelBackgroundColor=none;strokeWidth=1;" vertex="1" parent="1">
          <mxGeometry x="2470" y="-790" width="206" height="110" as="geometry" />
        </mxCell>
        <mxCell id="koLGY-mUpxRukAlsvuZr-16" value="&lt;p style=&quot;margin:0px;margin-top:4px;text-align:center;&quot;&gt;&lt;b&gt;PathValidator&lt;/b&gt;&lt;/p&gt;&lt;hr size=&quot;1&quot;/&gt;&lt;p style=&quot;margin:0 0 0 4px;line-height:1.6;&quot;&gt;+ PathValidator(): &lt;/p&gt;&lt;hr size=&quot;1&quot;/&gt;&lt;p style=&quot;margin:0 0 0 4px;line-height:1.6;&quot;&gt;+ validate(String): void&lt;br/&gt;+ isFolder(String): boolean&lt;/p&gt;" style="verticalAlign=top;align=left;overflow=fill;fontSize=14;fontFamily=Helvetica;html=1;rounded=0;shadow=0;comic=0;labelBackgroundColor=none;strokeWidth=1;" vertex="1" parent="1">
          <mxGeometry x="2676" y="369" width="199" height="118" as="geometry" />
        </mxCell>
        <mxCell id="koLGY-mUpxRukAlsvuZr-19" value="&lt;p style=&quot;margin:0px;margin-top:4px;text-align:center;&quot;&gt;&lt;b&gt;I18n&lt;/b&gt;&lt;/p&gt;&lt;hr size=&quot;1&quot;/&gt;&lt;p style=&quot;margin:0 0 0 4px;line-height:1.6;&quot;&gt;+ I18n(): &lt;/p&gt;&lt;hr size=&quot;1&quot;/&gt;&lt;p style=&quot;margin:0 0 0 4px;line-height:1.6;&quot;&gt;+ getString(String, Object[]): String&lt;br/&gt;+ getString(String): String&lt;br/&gt;+ getResourceBundle(Locale): ResourceBundle&lt;/p&gt;" style="verticalAlign=top;align=left;overflow=fill;fontSize=14;fontFamily=Helvetica;html=1;rounded=0;shadow=0;comic=0;labelBackgroundColor=none;strokeWidth=1;" vertex="1" parent="1">
          <mxGeometry x="1330" y="530" width="327" height="143" as="geometry" />
        </mxCell>
        <mxCell id="koLGY-mUpxRukAlsvuZr-20" value="&lt;p style=&quot;margin:0px;margin-top:4px;text-align:center;&quot;&gt;&lt;b&gt;FileValidator&lt;/b&gt;&lt;/p&gt;&lt;hr size=&quot;1&quot;/&gt;&lt;p style=&quot;margin:0 0 0 4px;line-height:1.6;&quot;&gt;+ FileValidator(): &lt;/p&gt;&lt;hr size=&quot;1&quot;/&gt;&lt;p style=&quot;margin:0 0 0 4px;line-height:1.6;&quot;&gt;+ validate(String): String&lt;/p&gt;" style="verticalAlign=top;align=left;overflow=fill;fontSize=14;fontFamily=Helvetica;html=1;rounded=0;shadow=0;comic=0;labelBackgroundColor=none;strokeWidth=1;" vertex="1" parent="1">
          <mxGeometry x="2690" y="550" width="184" height="107" as="geometry" />
        </mxCell>
        <mxCell id="koLGY-mUpxRukAlsvuZr-22" value="&lt;p style=&quot;margin:0px;margin-top:4px;text-align:center;&quot;&gt;&lt;b&gt;FileModelException&lt;/b&gt;&lt;/p&gt;&lt;hr size=&quot;1&quot;/&gt;&lt;p style=&quot;margin:0 0 0 4px;line-height:1.6;&quot;&gt;+ FileModelException(String): &lt;/p&gt;" style="verticalAlign=top;align=left;overflow=fill;fontSize=14;fontFamily=Helvetica;html=1;rounded=0;shadow=0;comic=0;labelBackgroundColor=none;strokeWidth=1;" vertex="1" parent="1">
          <mxGeometry x="2942.5" y="570" width="222" height="67" as="geometry" />
        </mxCell>
        <mxCell id="koLGY-mUpxRukAlsvuZr-23" value="&lt;p style=&quot;margin:0px;margin-top:4px;text-align:center;&quot;&gt;&lt;b&gt;PathValidationException&lt;/b&gt;&lt;/p&gt;&lt;hr size=&quot;1&quot;/&gt;&lt;p style=&quot;margin:0 0 0 4px;line-height:1.6;&quot;&gt;+ PathValidationException(String): &lt;/p&gt;" style="verticalAlign=top;align=left;overflow=fill;fontSize=14;fontFamily=Helvetica;html=1;rounded=0;shadow=0;comic=0;labelBackgroundColor=none;strokeWidth=1;" vertex="1" parent="1">
          <mxGeometry x="2936" y="394.5" width="250" height="67" as="geometry" />
        </mxCell>
        <mxCell id="koLGY-mUpxRukAlsvuZr-30" value="&lt;p style=&quot;margin:0px;margin-top:4px;text-align:center;&quot;&gt;&lt;i&gt;&amp;lt;&amp;lt;enumeration&amp;gt;&amp;gt;&lt;/i&gt;&lt;br/&gt;&lt;b&gt;UserChoice&lt;/b&gt;&lt;/p&gt;&lt;hr size=&quot;1&quot;/&gt;&lt;p style=&quot;margin:0 0 0 4px;line-height:1.6;&quot;&gt;- UserChoice(String, String): &lt;/p&gt;&lt;hr size=&quot;1&quot;/&gt;&lt;p style=&quot;margin:0 0 0 4px;line-height:1.6;&quot;&gt;+ OPEN: &lt;br/&gt;+ QUIT: &lt;br/&gt;+ HELP: &lt;br/&gt;- command: String&lt;br/&gt;- i18nKey: String&lt;br/&gt;+ ARCHIVE: &lt;br/&gt;+ NEXT: &lt;/p&gt;&lt;hr size=&quot;1&quot;/&gt;&lt;p style=&quot;margin:0 0 0 4px;line-height:1.6;&quot;&gt;+ getCommand(): String&lt;br/&gt;+ values(): UserChoice[]&lt;br/&gt;+ fromCommand(String): UserChoice?&lt;br/&gt;+ valueOf(String): UserChoice&lt;/p&gt;" style="verticalAlign=top;align=left;overflow=fill;fontSize=14;fontFamily=Helvetica;html=1;rounded=0;shadow=0;comic=0;labelBackgroundColor=none;strokeWidth=1;" vertex="1" parent="1">
          <mxGeometry x="1700" y="530" width="270" height="384" as="geometry" />
        </mxCell>
        <mxCell id="koLGY-mUpxRukAlsvuZr-32" value="&lt;p style=&quot;margin:0px;margin-top:4px;text-align:center;&quot;&gt;&lt;b&gt;ConsoleView&lt;/b&gt;&lt;/p&gt;&lt;hr size=&quot;1&quot;/&gt;&lt;p style=&quot;margin:0 0 0 4px;line-height:1.6;&quot;&gt;+ ConsoleView(Locale): &lt;/p&gt;&lt;hr size=&quot;1&quot;/&gt;&lt;p style=&quot;margin:0 0 0 4px;line-height:1.6;&quot;&gt;- messages: ResourceBundle&lt;br/&gt;- OPTIONS: String&lt;/p&gt;&lt;hr size=&quot;1&quot;/&gt;&lt;p style=&quot;margin:0 0 0 4px;line-height:1.6;&quot;&gt;+ printWelcomeMessage(): void&lt;br/&gt;+ printFormattedMessage(String, Object[]): void&lt;br/&gt;+ printOptions(): void&lt;br/&gt;+ printMessage(String): void&lt;br/&gt;+ promptUserForOption(): void&lt;br/&gt;+ printSeparator(): void&lt;br/&gt;+ promptUserForPath(): String&lt;/p&gt;" style="verticalAlign=top;align=left;overflow=fill;fontSize=14;fontFamily=Helvetica;html=1;rounded=0;shadow=0;comic=0;labelBackgroundColor=none;strokeWidth=1;" vertex="1" parent="1">
          <mxGeometry x="1640" y="115" width="334" height="340" as="geometry" />
        </mxCell>
      </root>
    </mxGraphModel>
  </diagram>
</mxfile>
